<svg width="10" height="10" viewBox="0 0 10 10" fill="none" xmlns="http://www.w3.org/2000/svg">
<path d="M5.00008 5.00016C5.22925 5.00016 5.42543 4.91857 5.58862 4.75537C5.75182 4.59218 5.83341 4.396 5.83341 4.16683C5.83341 3.93766 5.75182 3.74148 5.58862 3.57829C5.42543 3.41509 5.22925 3.3335 5.00008 3.3335C4.77091 3.3335 4.57473 3.41509 4.41154 3.57829C4.24835 3.74148 4.16675 3.93766 4.16675 4.16683C4.16675 4.396 4.24835 4.59218 4.41154 4.75537C4.57473 4.91857 4.77091 5.00016 5.00008 5.00016ZM5.00008 8.06266C5.8473 7.28489 6.47578 6.57829 6.8855 5.94287C7.29522 5.30746 7.50008 4.74322 7.50008 4.25016C7.50008 3.49322 7.25876 2.87343 6.77612 2.39079C6.29348 1.90815 5.70147 1.66683 5.00008 1.66683C4.29869 1.66683 3.70668 1.90815 3.22404 2.39079C2.7414 2.87343 2.50008 3.49322 2.50008 4.25016C2.50008 4.74322 2.70494 5.30746 3.11466 5.94287C3.52439 6.57829 4.15286 7.28489 5.00008 8.06266ZM5.00008 9.16683C3.88203 8.21544 3.04696 7.33176 2.49487 6.51579C1.94279 5.69982 1.66675 4.94461 1.66675 4.25016C1.66675 3.2085 2.00182 2.37864 2.67196 1.76058C3.3421 1.14252 4.11814 0.833496 5.00008 0.833496C5.88203 0.833496 6.65807 1.14252 7.32821 1.76058C7.99834 2.37864 8.33341 3.2085 8.33341 4.25016C8.33341 4.94461 8.05737 5.69982 7.50529 6.51579C6.95321 7.33176 6.11814 8.21544 5.00008 9.16683Z" fill="#D21E6A"/>
</svg>
